<svg width="268" height="276" viewBox="0 0 268 276" fill="none" xmlns="http://www.w3.org/2000/svg">
<path opacity="0.5" fill-rule="evenodd" clip-rule="evenodd" d="M217.038 415.925C207.421 408.725 196.467 403.351 184.965 399.921C144.723 387.918 101.725 340.849 134.274 296.589C170.294 247.609 187.908 181.023 124.534 126.834C104.372 109.596 83.7485 83.4735 99.7195 58.4907C115.69 33.508 107.888 -17.0877 59.4069 5.79354C10.9257 28.6748 21.8253 77.5712 54.5016 112.326C80.4364 139.91 107.618 194.127 55.7811 235.286C11.9787 270.066 -1.39935 308.533 -0.385933 360.949C0.0801468 385.022 14.0099 406.38 30.4203 422.993C41.0336 433.737 52.9156 443.631 66.7728 449.824C67.141 449.988 67.5105 450.15 67.8811 450.31C100.895 464.483 132.604 473.494 168.705 466.679C180.239 464.5 190.786 464.017 202.078 460C214.111 455.732 225.834 450.635 237.163 444.748C237.93 444.348 238.724 443.92 239.226 443.215C240.165 441.895 239.779 440.033 238.985 438.622C233.739 429.294 225.491 422.252 217.038 415.925ZM261.309 95.2616C246.778 79.1942 219.065 77.892 199.256 81.3195C147.127 90.3384 231.376 5.08777 170.96 5.93599C121.993 6.62306 109.066 28.805 110.528 82.5281C111.31 109.507 135.171 127.674 157.051 139.067C170.195 145.912 184.167 151.074 198.342 155.335C212.709 159.652 224.602 166.617 236.994 162.358C240.857 161.03 244.769 158.612 248.82 154.683C262.621 141.296 276.67 112.242 261.311 95.2616H261.309ZM-44.8199 425.312C-49.5065 420.631 -69.05 411.002 -73.472 419.836C-73.6021 420.097 -73.7162 420.366 -73.8136 420.641C-74.8436 423.531 -74.1092 426.742 -73.0857 429.634C-68.7055 442.026 -58.8949 453.347 -45.8872 456.815C-19.7784 463.777 -28.5223 445.194 -29.9608 442.308C-31.3993 439.421 -37.3274 432.794 -44.8199 425.312ZM7.15183 408.812C-16.7187 396.034 -17.1373 362.153 -12.9685 350.706C-0.324791 315.993 -27.4391 284.753 -47.5933 324.891C-79.1548 387.749 -26.5465 421.072 -6.07377 427.016C14.399 432.961 20.2976 415.847 7.15183 408.81V408.812ZM171.192 288.095C152.813 296.153 128.456 353.292 159.839 374.009C191.221 394.726 219.076 381.405 221.077 357.911C223.239 332.514 209.111 325.162 193.21 330.45C177.31 335.738 169.033 317.51 180.137 305.917C189.347 296.296 187.365 281.002 171.192 288.093V288.095ZM205.869 192.759C193.618 151.894 169.46 151.259 163.85 152.009C158.241 152.76 155.542 160.94 166.41 169.575C183.894 183.46 181.044 229.207 169.68 246.949C157.549 265.891 169.154 274.419 181.483 271.483C194.043 268.495 218.117 233.625 205.869 192.759ZM47.8197 134.301C31.8725 72.9998 -77.9515 72.0739 -77.9515 72.0739C-102.507 71.8674 -107.631 95.1407 -104.769 115.343C-103.709 122.826 -100.919 130.28 -95.6299 135.68C-85.2159 146.311 -68.2092 150.751 -56.0941 159.589C-42.2068 169.718 -30.7829 183.714 -30.4586 201.647C-29.6422 246.767 -176.047 314.502 -76.0318 304.625C23.983 294.748 63.7656 195.603 47.8197 134.301ZM-35.2222 62.3312C-13.0102 74.4819 8.15662 46.071 18.8123 40.996C28.3374 36.4599 25.9466 22.1149 12.3391 30.1151C-1.26845 38.1153 -30.4564 27.2805 -42.8275 28.4798C-55.1987 29.6791 -57.4341 50.1804 -35.2222 62.3312ZM66.5196 200.824C70.141 199.989 73.2805 198.034 75.1348 195.041C77.053 192.065 77.6824 188.051 77.8226 183.515C77.7787 179.002 76.912 174.876 74.9679 171.916C73.077 168.951 70.1079 167.151 67.0871 167.157C63.9483 167.181 62.1962 168.897 60.247 171.876C58.428 174.866 56.4069 179.119 55.7833 184.466C55.2698 189.772 57.1096 194.981 58.948 197.882C60.9447 200.907 62.9406 201.623 66.5196 200.824V200.824ZM229.481 257.027C228.207 256.029 226.739 255.428 225.036 255.354C223.05 255.267 221.231 256.403 219.642 257.596C205.723 268.049 193.344 292.759 207.65 307.755C227.695 328.768 242.093 326.298 244.975 314.937C246.959 307.107 242.538 297.22 240.054 289.977C237.773 283.318 237.127 263.017 229.481 257.027ZM226.38 59.1311C237.787 59.1311 247.034 46.9365 247.034 31.8936C247.034 16.8507 237.787 4.6525 226.38 4.6525C214.974 4.6525 205.726 16.8478 205.726 31.8907C205.726 46.9336 214.974 59.1311 226.38 59.1311Z" fill="#C42773"/>
</svg>
