<svg width="270" height="305" viewBox="0 0 270 305" fill="none" xmlns="http://www.w3.org/2000/svg">
<path opacity="0.5" d="M418.997 112.448C418.965 119.456 418.719 126.535 418.259 133.683C418.151 135.367 418.026 137.05 417.884 138.731C416.034 160.403 401.509 210.892 369.818 189.673C365.717 186.927 362.457 183.129 359.17 179.451C341.199 159.337 320.866 139.352 296.679 126.879C277.079 116.771 246.645 110.931 233.767 91.8611C228.019 83.3502 226.388 72.6134 220.826 63.9813C209.004 45.6375 181.373 42.91 165.88 57.9047C149.47 73.79 153.181 99.8486 162.695 118.339C176.005 144.207 203.578 159.636 231.168 165.971C260.677 172.745 293.888 172.557 320.092 189.56C328.635 195.101 336.015 202.818 339.764 212.283C355.896 252.983 318.287 278.453 284.199 289.91C247.397 302.279 215.437 308.347 176.865 303.117C130.922 296.883 121.619 293.052 108.159 284.536C94.9235 276.161 77.4611 256.781 77.8165 237.617C77.9644 229.649 91.3854 220.808 107.141 219.708C132.091 217.967 163.178 223.343 163.168 187.89C162.398 168.525 138.546 132.169 115.054 144.027C107.413 147.885 101.373 152.922 99.2075 161.201C97.0424 169.481 102.251 179.579 95.6039 187.913C88.2439 197.14 72.8568 207.4 58.4025 207.656C15.9225 208.407 -6.60991 114.273 1.71071 65.5578C3.27052 56.4301 5.04866 47.0322 10.4437 39.5063C20.4612 25.5356 38.7896 25.2738 54.3683 26.7303C68.3375 28.0365 83.6409 29.8371 96.8314 23.9434C110.639 17.7747 124.07 -1.65356 114.115 -16.5077C110.223 -22.3141 103.169 -25.1107 96.3559 -26.7053C83.2794 -29.766 50.9564 -14.7774 49.3056 -38.5169C48.3171 -52.7482 64.1287 -63.9757 73.3917 -72.5133C85.2626 -83.4561 99.3276 -91.8313 114.088 -98.2666C197.516 -134.64 287.577 -109.172 354.973 -46.4559C401.151 -3.48447 419.271 54.455 418.997 112.448ZM266.048 -39.0234C264.797 -44.2797 261.681 -49.0368 256.431 -52.1557C247.649 -57.366 236.627 -55.7132 226.457 -56.6631C208.506 -58.3401 197.041 -73.0949 179.813 -75.0894C173.593 -75.8091 166.682 -73.8195 163.138 -68.6674C158.482 -61.888 161.105 -52.564 164.986 -45.3108C180.834 -15.6959 223.975 9.69272 255.641 -11.9008C264.293 -17.8042 268.373 -29.2717 266.052 -39.0234H266.048Z" fill="#C42773"/>
</svg>
